<svg width="123" height="39" viewBox="0 0 123 39" fill="none" xmlns="http://www.w3.org/2000/svg">
<rect width="39" height="38.9427" rx="6" fill="#6366F1"/>
<path d="M20.2586 9.33059C20.2587 10.0612 20.2578 10.7917 20.2592 11.5223C20.26 11.9421 20.4828 12.2334 20.8918 12.3513C21.2657 12.459 21.6539 12.531 22.012 12.677C22.8554 13.0208 23.6157 13.4973 24.2999 14.1123C25.5129 15.2026 26.2536 16.5506 26.6116 18.1247C26.6367 18.2353 26.685 18.3176 26.7573 18.3972C26.9291 18.5863 27.1247 18.6881 27.3954 18.6864C28.9835 18.6768 30.5718 18.6822 32.16 18.6808C32.4911 18.6805 32.8889 18.4293 32.909 18.1695C32.9342 17.8442 32.9553 17.5057 32.8948 17.1887C32.6895 16.1137 32.4105 15.0557 31.9557 14.055C31.3641 12.7532 30.6127 11.5598 29.6538 10.4856C28.8441 9.57855 27.9512 8.78232 26.9419 8.11584C25.5673 7.2081 24.0813 6.55485 22.4657 6.20154L22.4319 6.19414C21.9884 6.09709 21.5511 6.00138 21.0913 6.01609C20.5318 6.03399 20.2621 6.28697 20.2598 6.85296C20.2565 7.65764 20.2588 8.46234 20.2586 9.33059Z" fill="white"/>
<path d="M17.8426 6.02002C16.8003 6.01427 15.8296 6.3565 14.871 6.69443L14.8675 6.69566C14.2796 6.90291 13.7067 7.17468 13.1524 7.4846C12.5726 7.80871 12.01 8.15751 11.4819 8.55005C10.6109 9.19751 9.82627 9.94514 9.1462 10.7984C8.40135 11.733 7.75452 12.7246 7.26162 13.8175C7.00108 14.3952 6.77579 14.9822 6.59936 15.5903C6.3671 16.3908 6.13754 17.2041 6.10361 18.03C6.03955 19.5893 5.99775 21.158 6.41752 22.6895C6.77555 23.9957 7.27084 25.248 7.98586 26.3989C8.6764 27.5105 9.48203 28.5323 10.476 29.4005C11.3509 30.1648 12.2765 30.8379 13.3145 31.3744C14.3795 31.9249 15.4821 32.3206 16.6506 32.5854C18.3255 32.965 20.0027 32.9524 21.6826 32.7143C22.7155 32.568 23.7203 32.2741 24.6776 31.8519C25.7016 31.4003 26.6655 30.8436 27.5564 30.1581C28.1341 29.7135 28.2135 29.1963 27.7144 28.6982C26.7278 27.7133 25.7368 26.733 24.7451 25.7532C24.1048 25.1206 23.8664 25.0567 23.2664 25.4017C22.8277 25.6539 22.3882 25.8938 21.9079 26.0633C21.117 26.3423 20.3031 26.5274 19.47 26.509C18.3677 26.4846 17.3129 26.2269 16.3148 25.7226C15.4637 25.2925 14.7597 24.6943 14.1364 23.9928C13.5579 23.3417 13.1349 22.5957 12.8548 21.7658C12.6584 21.1841 12.5021 20.5926 12.4635 19.9834C12.3955 18.9086 12.5505 17.8669 12.9357 16.8485C13.2588 15.9941 13.728 15.2363 14.3238 14.5673C15.3381 13.4285 16.6017 12.6824 18.1028 12.3549C18.5322 12.2612 18.7479 11.9795 18.7484 11.5435C18.7501 9.98643 18.7511 8.42939 18.7482 6.87236C18.7471 6.29186 18.476 6.02466 17.8426 6.02002Z" fill="white"/>
<path d="M31.6422 20.192C30.2336 20.1923 28.8249 20.1913 27.4163 20.1935C26.9751 20.1942 26.7044 20.4035 26.5891 20.8261C26.4692 21.2654 26.3002 21.6848 26.114 22.1003C25.9102 22.555 25.6016 22.9457 25.3729 23.3839C25.2027 23.71 25.2547 24.0257 25.4598 24.3078C25.5755 24.4671 25.7439 24.5875 25.8848 24.7292C26.5367 25.385 27.1852 26.0441 27.839 26.6981C28.209 27.0681 28.5688 27.4514 28.966 27.7902C29.3541 28.1214 29.886 28.0114 30.1752 27.5895C30.4421 27.2 30.7166 26.8157 30.9793 26.4234C31.3734 25.8348 31.7001 25.2046 31.9926 24.564C32.3693 23.7393 32.6157 22.8649 32.832 21.982C32.9326 21.5713 32.9141 21.1646 32.9207 20.7538C32.9229 20.6132 32.8344 20.5251 32.7469 20.429C32.4525 20.1056 32.0664 20.2072 31.6422 20.192Z" fill="white"/>
<path d="M16.9604 21.0077C16.9423 21.973 17.3406 22.7059 18.1499 23.2407C18.3398 23.3661 18.5996 23.4185 18.6988 23.687C18.8352 24.0565 19.1728 24.29 19.5147 24.2713C19.8956 24.2505 20.1749 24.0618 20.3045 23.6956C20.3565 23.5485 20.4613 23.4837 20.5838 23.4167C21.1626 23.0997 21.6074 22.671 21.8711 22.0418C22.2818 21.0619 21.9679 19.9485 21.2145 19.2452C20.7507 18.8123 20.2125 18.6091 19.5817 18.5986C19.1191 18.5909 18.8031 18.3024 18.7238 17.8675C18.6542 17.4858 18.8288 17.1619 19.1931 16.9968C19.5206 16.8484 19.8932 16.9564 20.1502 17.2641C20.2897 17.4311 20.2849 17.6383 20.3174 17.831C20.3877 18.2472 20.786 18.6231 21.1776 18.6166C21.6096 18.6094 21.9943 18.2682 22.0496 17.8432C22.1454 17.1064 21.5776 16.0485 20.9307 15.6687C20.6915 15.5283 20.3828 15.448 20.2795 15.1162C20.1846 14.8115 19.8521 14.6069 19.5202 14.6013C19.191 14.5957 18.8426 14.7968 18.7386 15.0912C18.6731 15.2769 18.5601 15.3816 18.3952 15.4737C17.9214 15.7387 17.5202 16.0732 17.2585 16.5734C16.8346 17.3835 16.8468 18.1784 17.2789 18.9668C17.6392 19.6244 18.1847 20.0469 18.9299 20.2149C19.2088 20.2779 19.5 20.2311 19.7706 20.3477C20.128 20.5016 20.3322 20.8647 20.291 21.228C20.2419 21.6613 19.856 21.9282 19.5235 21.9428C19.173 21.9582 18.7727 21.6514 18.723 21.27C18.6981 21.0787 18.7156 20.8634 18.577 20.6943C18.3623 20.4326 18.1294 20.2039 17.7508 20.2628C17.3442 20.3261 17.086 20.5625 16.9604 21.0077Z" fill="white"/>
<path d="M46.7131 21V7.90909H49.1591V10.0398H49.321C49.5938 9.31818 50.0398 8.75568 50.6591 8.35227C51.2784 7.94318 52.0199 7.73864 52.8835 7.73864C53.7585 7.73864 54.4915 7.94318 55.0824 8.35227C55.679 8.76136 56.1193 9.32386 56.4034 10.0398H56.5398C56.8523 9.34091 57.3494 8.78409 58.0312 8.36932C58.7131 7.94886 59.5256 7.73864 60.4688 7.73864C61.6562 7.73864 62.625 8.1108 63.375 8.85511C64.1307 9.59943 64.5085 10.7216 64.5085 12.2216V21H61.9602V12.4602C61.9602 11.5739 61.7188 10.9318 61.2358 10.5341C60.7528 10.1364 60.1761 9.9375 59.5057 9.9375C58.6761 9.9375 58.0312 10.1932 57.571 10.7045C57.1108 11.2102 56.8807 11.8608 56.8807 12.6562V21H54.3409V12.2983C54.3409 11.5881 54.1193 11.017 53.6761 10.5852C53.233 10.1534 52.6563 9.9375 51.946 9.9375C51.4631 9.9375 51.017 10.0653 50.608 10.321C50.2045 10.571 49.8778 10.9205 49.6278 11.3693C49.3835 11.8182 49.2614 12.3381 49.2614 12.929V21H46.7131ZM73.4382 21.2642C72.2109 21.2642 71.1399 20.983 70.2251 20.4205C69.3104 19.858 68.6001 19.071 68.0945 18.0597C67.5888 17.0483 67.3359 15.8665 67.3359 14.5142C67.3359 13.1562 67.5888 11.9687 68.0945 10.9517C68.6001 9.93466 69.3104 9.14489 70.2251 8.58239C71.1399 8.01989 72.2109 7.73864 73.4382 7.73864C74.6655 7.73864 75.7365 8.01989 76.6513 8.58239C77.5661 9.14489 78.2763 9.93466 78.782 10.9517C79.2876 11.9687 79.5405 13.1562 79.5405 14.5142C79.5405 15.8665 79.2876 17.0483 78.782 18.0597C78.2763 19.071 77.5661 19.858 76.6513 20.4205C75.7365 20.983 74.6655 21.2642 73.4382 21.2642ZM73.4467 19.125C74.2422 19.125 74.9013 18.9148 75.424 18.4943C75.9467 18.0739 76.3331 17.5142 76.5831 16.8153C76.8388 16.1165 76.9666 15.3466 76.9666 14.5057C76.9666 13.6705 76.8388 12.9034 76.5831 12.2045C76.3331 11.5 75.9467 10.9347 75.424 10.5085C74.9013 10.0824 74.2422 9.86932 73.4467 9.86932C72.6456 9.86932 71.9808 10.0824 71.4524 10.5085C70.9297 10.9347 70.5405 11.5 70.2848 12.2045C70.0348 12.9034 69.9098 13.6705 69.9098 14.5057C69.9098 15.3466 70.0348 16.1165 70.2848 16.8153C70.5405 17.5142 70.9297 18.0739 71.4524 18.4943C71.9808 18.9148 72.6456 19.125 73.4467 19.125ZM84.9332 13.2273V21H82.3849V7.90909H84.831V10.0398H84.9929C85.294 9.34659 85.7656 8.78977 86.4077 8.36932C87.0554 7.94886 87.8707 7.73864 88.8537 7.73864C89.7457 7.73864 90.527 7.92614 91.1974 8.30114C91.8679 8.67045 92.3878 9.22159 92.7571 9.95455C93.1264 10.6875 93.3111 11.5937 93.3111 12.6733V21H90.7628V12.9801C90.7628 12.0312 90.5156 11.2898 90.0213 10.7557C89.527 10.2159 88.848 9.94602 87.9844 9.94602C87.3935 9.94602 86.8679 10.0739 86.4077 10.3295C85.9531 10.5852 85.5923 10.9602 85.3253 11.4545C85.0639 11.9432 84.9332 12.5341 84.9332 13.2273ZM102.371 21.2642C101.081 21.2642 99.9702 20.9886 99.0384 20.4375C98.1122 19.8807 97.3963 19.0994 96.8906 18.0938C96.3906 17.0824 96.1406 15.8977 96.1406 14.5398C96.1406 13.1989 96.3906 12.017 96.8906 10.9943C97.3963 9.97159 98.1009 9.1733 99.0043 8.59943C99.9134 8.02557 100.976 7.73864 102.192 7.73864C102.93 7.73864 103.646 7.8608 104.339 8.10511C105.033 8.34943 105.655 8.73295 106.206 9.25568C106.757 9.77841 107.192 10.4574 107.51 11.2926C107.828 12.1222 107.987 13.1307 107.987 14.3182V15.2216H97.581V13.3125H105.49C105.49 12.642 105.354 12.0483 105.081 11.5312C104.808 11.0085 104.425 10.5966 103.93 10.2955C103.442 9.99432 102.868 9.84375 102.209 9.84375C101.493 9.84375 100.868 10.0199 100.334 10.3722C99.8054 10.7187 99.3963 11.1733 99.1065 11.7358C98.8224 12.2926 98.6804 12.8977 98.6804 13.5511V15.0426C98.6804 15.9176 98.8338 16.6619 99.1406 17.2756C99.4531 17.8892 99.8878 18.358 100.445 18.6818C101.001 19 101.652 19.1591 102.396 19.1591C102.879 19.1591 103.32 19.0909 103.717 18.9545C104.115 18.8125 104.459 18.6023 104.749 18.3239C105.038 18.0455 105.26 17.7017 105.413 17.2926L107.825 17.7273C107.632 18.4375 107.286 19.0597 106.786 19.5938C106.291 20.1222 105.669 20.5341 104.919 20.8295C104.175 21.1193 103.325 21.2642 102.371 21.2642ZM112.05 25.9091C111.67 25.9091 111.323 25.8778 111.011 25.8153C110.698 25.7585 110.465 25.696 110.312 25.6278L110.925 23.5398C111.391 23.6648 111.806 23.7188 112.17 23.7017C112.533 23.6847 112.854 23.5483 113.133 23.2926C113.417 23.0369 113.667 22.6193 113.883 22.0398L114.198 21.1705L109.408 7.90909H112.136L115.451 18.0682H115.587L118.903 7.90909H121.638L116.244 22.7472C115.994 23.429 115.675 24.0057 115.289 24.4773C114.903 24.9545 114.442 25.3125 113.908 25.5511C113.374 25.7898 112.755 25.9091 112.05 25.9091Z" fill="#0F172A"/>
<path d="M48.5795 25.4545V26.1151H45.456V25.4545H48.5795ZM46.4318 23.8864H47.1946V30.2912C47.1946 30.5639 47.2415 30.7784 47.3352 30.9347C47.429 31.0881 47.5511 31.1974 47.7017 31.2628C47.8523 31.3253 48.0128 31.3565 48.1832 31.3565C48.2827 31.3565 48.3679 31.3509 48.4389 31.3395C48.5099 31.3253 48.5724 31.3111 48.6264 31.2969L48.7884 31.983C48.7145 32.0114 48.6236 32.0369 48.5156 32.0597C48.4077 32.0852 48.2741 32.098 48.1151 32.098C47.8366 32.098 47.5682 32.0369 47.3097 31.9148C47.054 31.7926 46.8438 31.6108 46.679 31.3693C46.5142 31.1278 46.4318 30.8281 46.4318 30.4702V23.8864ZM50.3022 32V25.4545H51.0394V26.4602H51.0948C51.2255 26.1307 51.4528 25.8651 51.7766 25.6634C52.1033 25.4588 52.4727 25.3565 52.8846 25.3565C52.9471 25.3565 53.0167 25.358 53.0934 25.3608C53.1701 25.3636 53.234 25.3665 53.2852 25.3693V26.1406C53.2511 26.1349 53.1914 26.1264 53.1062 26.1151C53.021 26.1037 52.9286 26.098 52.8292 26.098C52.4883 26.098 52.1843 26.1705 51.9173 26.3153C51.6531 26.4574 51.4442 26.6548 51.2908 26.9077C51.1374 27.1605 51.0607 27.4489 51.0607 27.7727V32H50.3022ZM56.4077 32.1491C56.0128 32.1491 55.652 32.0724 55.3253 31.919C54.9986 31.7628 54.7386 31.5384 54.5455 31.2457C54.3523 30.9503 54.2557 30.5923 54.2557 30.1719C54.2557 29.848 54.3168 29.5753 54.4389 29.3537C54.5611 29.1321 54.7344 28.9503 54.9588 28.8082C55.1832 28.6662 55.4489 28.554 55.7557 28.4716C56.0625 28.3892 56.4006 28.3253 56.7699 28.2798C57.1364 28.2344 57.446 28.1946 57.6989 28.1605C57.9545 28.1264 58.1491 28.0724 58.2827 27.9986C58.4162 27.9247 58.483 27.8054 58.483 27.6406V27.4872C58.483 27.0412 58.3494 26.6903 58.0824 26.4347C57.8182 26.1761 57.4375 26.0469 56.9403 26.0469C56.4688 26.0469 56.0838 26.1506 55.7855 26.358C55.4901 26.5653 55.2827 26.8097 55.1634 27.0909L54.4432 26.831C54.5909 26.473 54.7955 26.1875 55.0568 25.9744C55.3182 25.7585 55.6108 25.6037 55.9347 25.5099C56.2585 25.4134 56.5866 25.3651 56.919 25.3651C57.169 25.3651 57.429 25.3977 57.6989 25.4631C57.9716 25.5284 58.2244 25.642 58.4574 25.804C58.6903 25.9631 58.8793 26.1861 59.0241 26.473C59.169 26.7571 59.2415 27.1179 59.2415 27.5554V32H58.483V30.9645H58.4361C58.3452 31.1577 58.2102 31.3452 58.0312 31.527C57.8523 31.7088 57.6278 31.858 57.358 31.9744C57.0881 32.0909 56.7713 32.1491 56.4077 32.1491ZM56.5099 31.4545C56.9134 31.4545 57.2628 31.3651 57.5582 31.1861C57.8537 31.0071 58.081 30.7699 58.2401 30.4744C58.402 30.1761 58.483 29.848 58.483 29.4901V28.544C58.4261 28.598 58.331 28.6463 58.1974 28.6889C58.0668 28.7315 57.9148 28.7699 57.7415 28.804C57.571 28.8352 57.4006 28.8622 57.2301 28.8849C57.0597 28.9077 56.9062 28.9276 56.7699 28.9446C56.4006 28.9901 56.0852 29.0611 55.8239 29.1577C55.5625 29.2543 55.3622 29.3878 55.223 29.5582C55.0838 29.7259 55.0142 29.9418 55.0142 30.206C55.0142 30.6037 55.1562 30.9119 55.4403 31.1307C55.7244 31.3466 56.081 31.4545 56.5099 31.4545ZM63.8161 32.1364C63.2308 32.1364 62.7209 31.9901 62.2862 31.6974C61.8544 31.4048 61.5192 31.0043 61.2805 30.4957C61.0419 29.9872 60.9226 29.4077 60.9226 28.7571C60.9226 28.1009 61.0433 27.517 61.2848 27.0057C61.5291 26.4943 61.8672 26.0937 62.299 25.804C62.7308 25.5114 63.2322 25.3651 63.8033 25.3651C64.2408 25.3651 64.6371 25.4503 64.9922 25.6207C65.3473 25.7884 65.6399 26.0256 65.87 26.3324C66.103 26.6364 66.2493 26.9915 66.3089 27.3977H65.5419C65.4624 27.0284 65.2706 26.7131 64.9666 26.4517C64.6655 26.1875 64.282 26.0554 63.8161 26.0554C63.3984 26.0554 63.0291 26.169 62.7081 26.3963C62.3871 26.6207 62.1357 26.9347 61.9538 27.3381C61.7749 27.7386 61.6854 28.2031 61.6854 28.7315C61.6854 29.2628 61.7734 29.733 61.9496 30.142C62.1257 30.5483 62.3729 30.8665 62.6911 31.0966C63.0121 31.3267 63.3871 31.4418 63.8161 31.4418C64.1058 31.4418 64.37 31.3878 64.6087 31.2798C64.8501 31.169 65.0518 31.0128 65.2138 30.8111C65.3786 30.6094 65.4893 30.3693 65.5462 30.0909H66.3132C66.2564 30.4858 66.1158 30.8381 65.8913 31.1477C65.6697 31.4545 65.3814 31.696 65.0263 31.8722C64.674 32.0483 64.2706 32.1364 63.8161 32.1364ZM68.6293 29.5284L68.6207 28.5355H68.7912L71.8594 25.4545H72.8182L69.7884 28.4886L69.7202 28.5014L68.6293 29.5284ZM67.9389 32V23.2727H68.6974V32H67.9389ZM72.017 32L69.358 28.6378L69.9034 28.1136L72.9886 32H72.017ZM76.6204 32.1364C76.0096 32.1364 75.4812 31.9943 75.0352 31.7102C74.5891 31.4233 74.244 31.027 73.9996 30.5213C73.7582 30.0128 73.6374 29.4276 73.6374 28.7656C73.6374 28.1065 73.7582 27.5213 73.9996 27.0099C74.244 26.4957 74.5806 26.0937 75.0096 25.804C75.4414 25.5114 75.94 25.3651 76.5053 25.3651C76.8604 25.3651 77.2028 25.4304 77.5323 25.5611C77.8619 25.6889 78.1573 25.8864 78.4187 26.1534C78.6829 26.4176 78.8917 26.7514 79.0451 27.1548C79.1985 27.5554 79.2752 28.0298 79.2752 28.5781V28.9531H74.1616V28.2841H78.4996C78.4996 27.8636 78.4144 27.4858 78.244 27.1506C78.0763 26.8125 77.842 26.5455 77.5408 26.3494C77.2425 26.1534 76.8974 26.0554 76.5053 26.0554C76.0906 26.0554 75.7255 26.1662 75.4102 26.3878C75.0948 26.6094 74.8477 26.902 74.6687 27.2656C74.4925 27.6293 74.4031 28.027 74.4002 28.4588V28.8594C74.4002 29.3793 74.4897 29.8338 74.6687 30.223C74.8505 30.6094 75.1076 30.9091 75.44 31.1222C75.7724 31.3352 76.1658 31.4418 76.6204 31.4418C76.93 31.4418 77.2013 31.3935 77.4343 31.2969C77.6701 31.2003 77.8675 31.071 78.0266 30.9091C78.1886 30.7443 78.3107 30.5639 78.3931 30.3679L79.1133 30.6023C79.0138 30.8778 78.8505 31.1321 78.6232 31.3651C78.3988 31.598 78.1175 31.7855 77.7795 31.9276C77.4442 32.0668 77.0579 32.1364 76.6204 32.1364ZM80.9467 32V25.4545H81.6839V26.4602H81.7393C81.87 26.1307 82.0973 25.8651 82.4212 25.6634C82.7479 25.4588 83.1172 25.3565 83.5291 25.3565C83.5916 25.3565 83.6612 25.358 83.7379 25.3608C83.8146 25.3636 83.8786 25.3665 83.9297 25.3693V26.1406C83.8956 26.1349 83.8359 26.1264 83.7507 26.1151C83.6655 26.1037 83.5732 26.098 83.4737 26.098C83.1328 26.098 82.8288 26.1705 82.5618 26.3153C82.2976 26.4574 82.0888 26.6548 81.9354 26.9077C81.782 27.1605 81.7053 27.4489 81.7053 27.7727V32H80.9467Z" fill="#0F172A"/>
</svg>
